# Blender 4.3.2
# www.blender.org
mtllib house.mtl
o 0_House
v 8.832000 4.237936 -29.532000
v 8.832000 4.237936 8.839359
v -8.839359 4.237936 -29.532000
v -8.839359 4.237936 8.839359
v 8.832000 16.351658 -29.532000
v 8.832000 16.351658 8.839359
v -8.839359 16.351658 -29.532000
v -8.839359 16.351658 8.839359
v -0.003680 4.237936 -29.532000
v -0.003680 4.237936 8.839359
v -0.003680 26.616880 -29.532000
v -0.003680 26.616880 8.839359
v 8.832000 16.766409 -29.532000
v 8.832000 16.766409 8.839359
v -8.839359 16.766409 -29.532000
v -8.839359 16.766409 8.839359
v -0.003680 27.221104 -29.532000
v -0.003680 27.221104 8.839359
v 9.623973 16.351658 -30.323975
v 9.623973 16.351658 9.631333
v -9.631333 16.351658 -30.323975
v -9.631333 16.351658 9.631333
v -9.631333 16.766409 9.631333
v 9.623973 16.766409 -30.323975
v 9.623973 16.766409 9.631333
v -9.631333 16.766409 -30.323975
v 9.429133 0.064272 -30.129131
v 9.429522 0.535714 16.329317
v 9.429133 0.064272 16.329132
v -9.429133 0.064272 -30.129131
v -9.429133 0.064272 16.329132
v -9.458245 0.524667 -30.158623
v 9.437968 0.525227 -30.163679
v 9.025697 0.536434 -29.763849
v -9.431767 0.526353 16.333361
v 9.049431 0.537799 8.952931
v -9.070661 0.535667 -29.761410
v -9.108157 0.536698 8.955392
v 9.112629 4.237936 -29.812630
v 9.112629 4.237936 9.119989
v -9.119989 4.237936 -29.812630
v -9.119989 4.237936 9.119989
v 0.000000 0.062984 -30.180630
v 0.000000 0.062984 16.380629
v 0.000000 0.524597 -30.266659
v -0.003680 0.533797 -29.898659
v -0.006506 0.536926 9.123533
v -0.002826 0.532326 16.384172
v -0.003680 4.237936 -29.928869
v 8.832000 16.351658 -30.222000
v -8.839359 16.351658 -30.222000
v -0.003680 26.616880 -30.222000
v 8.832000 16.766409 -30.222000
v -8.839359 16.766409 -30.222000
v -0.003680 27.221104 -30.222000
v 8.832000 16.351658 9.759359
v -8.839359 16.351658 9.759359
v -0.003680 26.616880 9.759359
v 8.832000 16.766409 9.759359
v -8.839359 16.766409 9.759359
v -0.003680 27.221104 9.759359
v -3.537952 4.237936 8.839359
v 3.530592 4.237936 8.839359
v -3.537952 22.510790 8.839359
v 3.530592 22.510790 8.839359
v -3.650204 4.237936 9.189734
v 3.642844 4.237936 9.189734
v -3.647166 0.536835 9.056276
v 3.615869 0.537275 9.055292
v -3.537952 0.557936 8.839359
v 3.530592 0.557936 8.839359
v -0.006506 0.536926 8.847533
v -0.003680 11.720258 8.839359
v -3.537952 10.347402 8.839359
v 3.530592 10.347402 8.839359
v -3.537952 10.954851 8.839359
v -0.003680 12.464208 8.839359
v 3.530592 10.954851 8.839359
v -0.003680 11.720258 9.118642
v -3.537952 10.347402 9.118642
v 3.530592 10.347402 9.118642
v -3.537952 10.954851 9.118642
v -0.003680 12.464208 9.118642
v 3.530592 10.954851 9.118642
v 8.832000 4.237936 -10.346319
v -8.839359 4.237936 -10.346319
v 8.832000 16.351658 -10.346319
v -8.839359 16.351658 -10.346319
v 8.832000 16.766409 -10.346319
v -8.839359 16.766409 -10.346319
v -0.003680 27.221104 -10.346319
v 9.623973 16.351658 -10.346321
v -9.631333 16.351658 -10.346321
v 9.623973 16.766409 -10.346321
v -9.631333 16.766409 -10.346321
v -9.429133 0.064272 -6.900000
v 9.429133 0.064272 -6.899999
v -9.445006 0.525510 -6.912631
v 9.037564 0.537117 -10.405459
v -9.089409 0.536183 -10.403008
v 9.433744 0.530470 -6.917181
v 9.112629 4.237936 -10.346319
v -9.119989 4.237936 -10.346319
v 0.000000 0.062984 -6.900000
v 9.429133 0.064272 -18.605297
v -9.451677 0.525085 -18.626425
v 8.832000 4.237936 -20.014099
v -8.839359 4.237936 -20.014099
v 8.832000 16.351658 -20.014099
v -8.839359 16.351658 -20.014099
v 8.832000 16.766409 -20.014099
v -8.839359 16.766409 -20.014099
v -0.003680 27.221104 -20.014099
v 9.623973 16.351658 -20.413179
v -9.631333 16.351658 -20.413179
v 9.623973 16.766409 -20.413179
v -9.631333 16.766409 -20.413179
v -9.429133 0.064272 -18.605301
v 9.031584 0.536773 -20.160269
v -9.079961 0.535923 -20.157825
v 9.435874 0.527828 -18.631229
v 9.112629 4.237936 -20.155510
v -9.119989 4.237936 -20.155510
v 0.000000 0.062984 -18.631248
v -8.839359 10.371454 -29.532000
v -8.839359 10.371454 8.839359
v 8.832000 10.371454 8.839359
v -0.003680 15.569025 -29.532000
v 8.832000 10.371454 -29.532000
v -8.839359 10.371454 -10.346319
v 8.832000 10.371454 -10.346319
v -8.839359 10.371454 -20.014099
v 8.832000 10.371454 -20.014099
v -8.839359 7.304695 -10.346319
v -8.839359 7.304695 -20.014099
v -8.839359 7.304695 -29.532000
v -8.839359 7.304695 8.839359
v 8.832000 7.304695 8.839359
v -0.003680 9.903481 -29.532000
v 8.832000 7.304695 -29.532000
v 8.832000 7.304695 -10.346319
v 8.832000 7.304695 -20.014099
v -8.839359 13.438176 -29.532000
v -8.839359 13.438176 8.839359
v 8.832000 13.438176 8.839359
v -0.003680 21.234499 -29.532000
v 8.832000 13.438176 -29.532000
v 8.832000 13.438176 -10.346319
v 8.832000 13.438176 -20.014099
v -8.839359 13.438176 -10.346319
v -8.839359 13.438176 -20.014099
vn -0.0000 -0.0000 -1.0000
vn 1.0000 -0.0000 -0.0000
vn -0.0000 1.0000 -0.0000
vn -1.0000 -0.0000 -0.0000
vn -0.7638 0.6455 -0.0000
vn 0.7638 0.6455 -0.0000
vn -0.0000 -1.0000 -0.0000
vn 0.0001 -1.0000 -0.0000
vn 0.0054 -0.1832 -0.9831
vn -0.0151 -0.0082 -0.9999
vn -0.0306 0.9995 -0.0001
vn -0.9994 -0.0344 -0.0000
vn -0.0001 1.0000 0.0003
vn 0.0055 -0.0075 1.0000
vn 0.0271 0.9996 -0.0001
vn 0.9999 -0.0145 0.0002
vn 0.0002 0.9996 -0.0278
vn 0.9998 -0.0219 -0.0000
vn -1.0000 -0.0082 -0.0010
vn -0.0003 0.9996 -0.0274
vn -0.0055 -0.0092 0.9999
vn -0.0000 1.0000 0.0006
vn 0.0127 -0.0135 -0.9998
vn -0.0054 -0.1832 -0.9831
vn -0.0001 -1.0000 -0.0000
vn 0.7579 -0.6524 -0.0000
vn -0.7579 -0.6524 -0.0000
vn 0.1277 -0.0000 -0.9918
vn -0.1277 -0.0000 -0.9918
vn -0.0000 -0.0000 1.0000
vn -0.1596 -0.0000 0.9872
vn 0.1596 -0.0000 0.9872
vn -0.0185 -0.0445 0.9988
vn 0.0188 -0.0364 0.9992
vn 0.0059 1.0000 -0.0000
vn -0.0001 1.0000 -0.0000
vn 0.3927 0.9196 -0.0000
vn -0.3621 -0.9321 -0.0000
vn -0.0023 0.0022 1.0000
vn -0.9303 -0.0065 0.3668
vn 0.9523 -0.0000 0.3051
vn 0.3621 -0.9321 -0.0000
vn -0.3927 0.9196 -0.0000
vn -0.9999 -0.0108 -0.0010
vn 0.9999 -0.0171 -0.0000
vn 1.0000 -0.0008 0.0002
vn 0.0172 0.9999 -0.0000
vn -0.9988 -0.0488 0.0006
vn -0.0294 0.9996 -0.0001
vn -0.0283 0.9996 -0.0001
vn -0.9980 -0.0631 0.0006
vn -0.9999 -0.0133 -0.0010
vn 0.9998 -0.0203 -0.0000
vn 1.0000 -0.0099 0.0002
vn 0.0223 0.9998 -0.0000
vn 0.0109 -0.0749 -0.9971
vn -0.0127 -0.0140 -0.9998
vn -0.0324 0.9995 -0.0000
vn -1.0000 -0.0057 0.0006
vn -0.0001 1.0000 0.0006
vn -0.0004 1.0000 0.0005
vn 0.0058 -0.0004 1.0000
vn 0.0230 0.9997 -0.0002
vn 0.9998 -0.0192 -0.0000
vn 0.0001 0.9997 -0.0250
vn 0.9997 -0.0235 -0.0006
vn -1.0000 -0.0032 -0.0000
vn -0.0002 0.9997 -0.0250
vn -0.0054 -0.0076 1.0000
vn -0.0001 1.0000 0.0014
vn -0.0006 1.0000 0.0009
vn 0.0149 -0.0082 -0.9999
vn -0.0114 -0.0646 -0.9978
vn -0.0127 -0.0360 0.9993
vn 0.0127 -0.0453 0.9989
vn -0.0018 0.9954 0.0959
vn -0.0057 0.9952 0.0975
vn -0.9523 -0.0000 0.3051
vn 0.0023 0.0022 1.0000
vn 0.8937 -0.0154 0.4485
vn -1.0000 -0.0083 -0.0000
vn 0.9998 -0.0203 -0.0006
vn 1.0000 -0.0099 -0.0000
vn 0.0098 1.0000 -0.0002
vn -0.0302 0.9995 -0.0000
vn -0.0292 0.9996 -0.0000
vn -0.9988 -0.0489 -0.0000
vn -0.9999 -0.0108 -0.0000
vn 0.9998 -0.0219 -0.0006
vn 0.9999 -0.0145 -0.0000
vn 0.0187 0.9998 -0.0002
vt 0.360475 0.530387
vt 0.583423 0.675274
vt 0.360475 0.443936
vt 0.978315 0.586880
vt 0.738152 0.675059
vt 0.738152 0.586880
vt 0.627550 0.747550
vt 0.628775 0.626275
vt 0.628775 0.626275
vt 0.806371 0.530387
vt 0.806371 0.443936
vt 0.719530 0.466287
vt 0.726460 0.501191
vt 0.719530 0.501191
vt 0.283150 0.536095
vt 0.501340 0.536817
vt 0.276221 0.536606
vt 0.276221 0.519037
vt 0.283150 0.518780
vt 0.719530 0.536095
vt 0.501340 0.536095
vt 0.866177 0.565767
vt 0.701090 0.760953
vt 0.700264 0.565263
vt 0.866177 0.370561
vt 0.699439 0.369573
vt 0.870100 0.505000
vt 0.870088 0.564565
vt 0.870088 0.564568
vt 0.870051 0.745149
vt 0.870075 0.625075
vt 0.870076 0.625075
vt 0.630000 0.505000
vt 0.629392 0.565164
vt 0.629392 0.565164
vt 0.548179 0.502812
vt 0.442773 0.762486
vt 0.548179 0.763062
vt 0.548179 0.379598
vt 0.442773 0.585434
vt 0.548179 0.586010
vt -0.322036 0.298258
vt 0.503871 0.581691
vt 0.503872 0.298114
vt 0.585723 0.379190
vt 0.763109 0.374187
vt 0.546705 0.374418
vt 0.845539 0.585434
vt 0.585865 0.585434
vt 0.442768 0.762489
vt 0.447017 0.680029
vt 0.507758 0.681174
vt 0.548211 0.376142
vt 0.447217 0.354578
vt 0.442674 0.242752
vt 0.447283 0.247222
vt 0.455013 0.585434
vt 0.325804 0.379317
vt 0.454723 0.378154
vt 0.447283 0.374305
vt 0.442674 0.379317
vt 1.394346 0.298342
vt 2.273574 0.581691
vt 1.393912 0.581691
vt -1.257783 0.298337
vt 0.500399 0.581691
vt 0.505563 0.298297
vt 0.649578 0.374648
vt 0.653911 0.379567
vt 0.653615 0.378813
vt 0.653586 0.585434
vt 0.548211 0.763102
vt 0.548252 0.681936
vt 0.588950 0.681185
vt 1.326353 0.298316
vt 1.334271 0.581691
vt 0.653586 0.762486
vt 0.653586 0.502812
vt 0.750050 0.505000
vt 0.000000 0.000000
vt 0.797301 0.745869
vt 0.748801 0.746349
vt 0.806371 0.352938
vt 0.672602 0.370249
vt 0.283150 0.466287
vt 0.411292 0.465650
vt 0.414064 0.466287
vt 0.347847 0.461814
vt 0.839518 0.668662
vt 0.347847 0.668661
vt 0.591388 0.465650
vt 0.726460 0.465777
vt 0.171988 0.298347
vt -0.326528 0.581691
vt -0.325452 0.298337
vt 1.328514 0.298421
vt 0.836031 0.581691
vt 0.833574 0.298381
vt 0.748801 0.746350
vt 0.700300 0.746830
vt 0.700300 0.746830
vt 0.839518 0.254966
vt 0.347847 0.254966
vt 0.583423 0.415035
vt 0.494244 0.713145
vt 0.494244 0.370249
vt 0.051692 0.668661
vt 0.050001 0.461979
vt 0.017972 0.574679
vt 0.026624 0.306883
vt 0.021292 0.305380
vt 0.051692 0.254965
vt 0.026625 0.574679
vt 0.672602 0.713145
vt 0.583423 0.834985
vt 0.672602 0.170939
vt 0.806371 0.170939
vt 0.672602 0.352224
vt 0.494244 0.170939
vt 0.494244 0.352224
vt 0.360475 0.170939
vt 0.360475 0.352938
vt 0.700300 0.746830
vt 0.653586 0.371961
vt 1.394124 0.298277
vt -1.257559 0.298421
vt -1.272777 0.581691
vt 0.585672 0.376972
vt 0.845541 0.374627
vt 0.442721 0.502620
vt 0.447150 0.463626
vt 0.454777 0.379380
vt 0.437658 0.374534
vt 0.442773 0.371961
vt 0.548179 0.371671
vt 0.870088 0.564568
vt 0.530075 0.368569
vt 0.197300 0.563735
vt 0.193972 0.366578
vt 0.531739 0.564751
vt 0.200627 0.760893
vt 0.276221 0.501191
vt 0.276221 0.465777
vt 0.719530 0.518780
vt 0.726460 0.519037
vt 0.010103 0.675059
vt 0.494209 0.586880
vt 0.010103 0.586880
vt 0.726460 0.536606
vt 0.442773 0.243138
vt 0.548179 0.242563
vt 0.325861 0.379567
vt 0.330301 0.374648
vt 0.326190 0.585434
vt 2.268909 0.298258
vt 0.653586 0.243138
vt 0.505786 0.298369
vt 0.442697 0.371671
vt 0.533402 0.760933
vt 0.283150 0.501191
vt 0.494209 0.675059
vt 0.844122 0.139012
vt 0.155878 0.500001
vt 0.155878 0.139012
vt 0.494209 0.494063
vt 0.738152 0.401246
vt 0.494209 0.401246
vt 0.010103 0.494063
vt 0.010103 0.401246
vt 0.583423 0.339052
vt 0.806371 0.261938
vt 0.738152 0.494063
vt 0.978315 0.401246
vt 0.360475 0.261938
vt 0.583423 0.170939
vt 0.978315 0.308428
vt 0.738152 0.308428
vt 0.494209 0.308428
vt 0.010103 0.308428
vt 0.844122 0.500001
vt 0.155878 0.860985
vt 0.583423 0.507164
vt 0.978315 0.494063
vt 0.978315 0.675059
vt 0.866177 0.760972
vt 0.442773 0.502812
vt 0.845586 0.378813
vt 0.442768 0.374627
vt 0.548220 0.375484
vt 2.269130 0.298316
vt 0.649998 0.680057
vt 0.653615 0.762534
vt 0.950001 0.461816
vt 0.588616 0.466287
vt 0.171712 0.581691
vt 0.797301 0.745869
vt 0.021268 0.305347
vt 0.844122 0.860985
s 0
usemtl 0_shingles
f 14/7/3 94/8/3 89/9/3
f 17/22/5 112/23/5 113/24/5
f 13/25/6 113/24/6 111/26/6
f 15/27/3 117/28/3 112/29/3
f 22/30/4 95/31/4 93/32/4
f 19/33/2 116/34/2 114/35/2
f 8/30/7 93/32/7 88/31/7
f 5/33/7 114/35/7 109/35/7
f 13/33/6 55/79/6 17/79/6
f 7/27/26 52/79/26 11/79/26
f 11/79/27 50/33/27 5/33/27
f 17/79/5 54/27/5 15/27/5
f 15/27/3 54/27/3 26/27/3
f 7/27/7 21/27/7 51/27/7
f 26/27/28 51/27/28 21/27/28
f 54/27/1 52/79/1 51/27/1
f 19/33/29 53/80/29 24/33/29
f 5/33/7 50/33/7 19/33/7
f 24/33/3 53/80/3 13/33/3
f 52/79/1 53/33/1 50/80/1
f 57/80/26 64/81/26 58/82/26
f 60/80/5 18/82/5 16/30/5
f 57/80/31 23/80/31 22/80/31
f 25/80/3 14/7/3 59/7/3
f 25/80/32 56/7/32 20/80/32
f 64/81/26 57/80/26 8/30/26
f 58/82/30 59/7/30 61/80/30
f 58/82/30 60/80/30 57/80/30
f 61/80/6 14/7/6 18/82/6
f 23/80/3 60/80/3 16/30/3
f 70/80/35 47/99/35 72/80/35
f 69/100/36 72/80/36 47/99/36
f 20/80/7 56/7/7 6/7/7
f 8/30/7 57/80/7 22/80/7
f 65/123/27 6/7/27 56/7/27
f 65/80/27 56/7/27 58/82/27
f 6/7/7 92/9/7 20/7/7
f 110/136/7 93/32/7 115/29/7
f 92/9/2 25/7/2 20/7/2
f 93/32/4 117/28/4 115/29/4
f 16/30/3 95/31/3 23/30/3
f 89/137/6 18/138/6 14/139/6
f 91/140/5 16/141/5 18/138/5
f 111/35/3 94/8/3 116/34/3
f 13/33/3 116/34/3 24/33/3
f 115/29/4 26/27/4 21/27/4
f 7/27/7 115/29/7 21/27/7
f 109/35/7 92/9/7 87/9/7
f 114/35/2 94/8/2 92/9/2
f 112/29/3 95/31/3 90/32/3
f 111/26/6 91/140/6 89/137/6
f 113/24/5 90/159/5 91/140/5
f 14/7/3 25/7/3 94/8/3
f 17/22/5 15/185/5 112/23/5
f 13/25/6 17/22/6 113/24/6
f 15/27/3 26/27/3 117/28/3
f 22/30/4 23/30/4 95/31/4
f 19/33/2 24/33/2 116/34/2
f 8/30/7 22/30/7 93/32/7
f 5/33/7 19/33/7 114/35/7
f 13/33/6 53/33/6 55/79/6
f 7/27/26 51/27/26 52/79/26
f 11/79/27 52/79/27 50/33/27
f 17/79/5 55/79/5 54/27/5
f 26/27/28 54/27/28 51/27/28
f 54/27/1 55/79/1 52/79/1
f 19/33/29 50/80/29 53/80/29
f 52/79/1 55/79/1 53/33/1
f 60/80/5 61/80/5 18/82/5
f 57/80/31 60/80/31 23/80/31
f 25/80/32 59/7/32 56/7/32
f 58/82/30 56/7/30 59/7/30
f 58/82/30 61/80/30 60/80/30
f 61/80/6 59/7/6 14/7/6
f 70/80/76 68/196/76 47/99/76
f 69/100/77 71/80/77 72/80/77
f 6/7/7 87/9/7 92/9/7
f 110/136/7 88/31/7 93/32/7
f 92/9/2 94/8/2 25/7/2
f 93/32/4 95/31/4 117/28/4
f 16/30/3 90/32/3 95/31/3
f 89/137/6 91/140/6 18/138/6
f 91/140/5 90/159/5 16/141/5
f 111/35/3 89/9/3 94/8/3
f 13/33/3 111/35/3 116/34/3
f 115/29/4 117/28/4 26/27/4
f 7/27/7 110/136/7 115/29/7
f 109/35/7 114/35/7 92/9/7
f 114/35/2 116/34/2 94/8/2
f 112/29/3 117/28/3 95/31/3
f 111/26/6 113/24/6 91/140/6
f 113/24/5 112/23/5 90/159/5
f 65/80/27 58/82/27 12/115/27
f 64/81/26 12/115/26 58/82/26
usemtl 1_weatherboard
f 7/1/1 146/2/1 143/3/1
f 147/4/2 109/5/2 149/6/2
f 110/5/4 143/4/4 151/6/4
f 146/2/1 5/10/1 147/11/1
f 127/83/30 145/11/30 78/84/30
f 77/82/37 84/101/37 78/101/37
f 75/101/38 79/82/38 73/82/38
f 77/104/30 64/105/30 76/106/30
f 77/104/30 65/114/30 12/115/30
f 63/116/30 2/117/30 75/118/30
f 62/119/30 74/120/30 4/121/30
f 76/106/30 144/3/30 126/122/30
f 79/82/30 82/81/30 80/81/30
f 79/82/30 84/101/30 83/82/30
f 73/82/42 80/81/42 74/81/42
f 76/81/43 83/82/43 77/82/43
f 78/101/2 81/101/2 75/101/2
f 74/81/4 82/81/4 76/81/4
f 8/146/4 150/147/4 144/148/4
f 148/147/2 6/146/2 145/148/2
f 88/161/4 151/6/4 150/147/4
f 149/6/2 87/161/2 148/147/2
f 130/165/4 135/166/4 134/167/4
f 141/167/2 127/168/2 138/169/2
f 126/168/4 134/167/4 137/169/4
f 139/170/1 129/83/1 140/171/1
f 132/172/4 136/173/4 135/166/4
f 140/173/2 133/172/2 142/166/2
f 125/122/1 139/170/1 136/174/1
f 136/174/1 9/175/1 3/121/1
f 1/176/2 142/166/2 107/177/2
f 135/166/4 3/176/4 108/177/4
f 9/175/1 140/171/1 1/117/1
f 137/169/4 86/178/4 4/179/4
f 85/178/2 138/169/2 2/179/2
f 134/167/4 108/177/4 86/178/4
f 107/177/2 141/167/2 85/178/2
f 150/147/4 132/172/4 130/165/4
f 131/165/2 145/148/2 127/168/2
f 144/148/4 130/165/4 126/168/4
f 128/182/1 147/11/1 129/83/1
f 151/6/4 125/183/4 132/172/4
f 129/183/2 149/6/2 133/172/2
f 143/3/1 128/182/1 125/122/1
f 7/1/1 11/115/1 146/2/1
f 147/4/2 5/184/2 109/5/2
f 110/5/4 7/184/4 143/4/4
f 146/2/1 11/115/1 5/10/1
f 75/118/30 2/117/30 138/171/30
f 75/118/30 138/171/30 127/83/30
f 6/10/30 65/114/30 78/84/30
f 78/84/30 75/118/30 127/83/30
f 145/11/30 6/10/30 78/84/30
f 77/82/37 83/82/37 84/101/37
f 75/101/38 81/101/38 79/82/38
f 77/104/30 12/115/30 64/105/30
f 77/104/30 78/84/30 65/114/30
f 137/174/30 4/121/30 74/120/30
f 76/106/30 64/105/30 8/1/30
f 137/174/30 74/120/30 126/122/30
f 74/120/30 76/106/30 126/122/30
f 76/106/30 8/1/30 144/3/30
f 79/82/30 83/82/30 82/81/30
f 79/82/30 81/101/30 84/101/30
f 73/82/42 79/82/42 80/81/42
f 76/81/43 82/81/43 83/82/43
f 78/101/2 84/101/2 81/101/2
f 74/81/4 80/81/4 82/81/4
f 8/146/4 88/161/4 150/147/4
f 148/147/2 87/161/2 6/146/2
f 88/161/4 110/5/4 151/6/4
f 149/6/2 109/5/2 87/161/2
f 130/165/4 132/172/4 135/166/4
f 141/167/2 131/165/2 127/168/2
f 126/168/4 130/165/4 134/167/4
f 139/170/1 128/182/1 129/83/1
f 132/172/4 125/183/4 136/173/4
f 140/173/2 129/183/2 133/172/2
f 125/122/1 128/182/1 139/170/1
f 136/174/1 139/170/1 9/175/1
f 1/176/2 140/173/2 142/166/2
f 135/166/4 136/173/4 3/176/4
f 9/175/1 139/170/1 140/171/1
f 137/169/4 134/167/4 86/178/4
f 85/178/2 141/167/2 138/169/2
f 134/167/4 135/166/4 108/177/4
f 107/177/2 142/166/2 141/167/2
f 150/147/4 151/6/4 132/172/4
f 131/165/2 148/147/2 145/148/2
f 144/148/4 150/147/4 130/165/4
f 128/182/1 146/2/1 147/11/1
f 151/6/4 143/4/4 125/183/4
f 129/183/2 147/4/2 149/6/2
f 143/3/1 146/2/1 128/182/1
usemtl 2_bricks
f 2/12/3 102/13/3 85/14/3
f 3/15/3 49/16/3 41/17/3
f 3/15/3 123/18/3 108/19/3
f 1/20/3 49/16/3 9/21/3
f 37/42/10 49/43/10 46/44/10
f 119/62/18 39/63/18 122/64/18
f 38/65/19 103/66/19 100/67/19
f 34/75/23 49/43/23 39/76/23
f 4/85/3 66/86/3 62/87/3
f 2/12/3 67/91/3 40/92/3
f 68/93/33 42/94/33 38/95/33
f 36/96/34 67/97/34 69/98/34
f 67/109/40 71/110/40 69/111/40
f 66/109/41 70/110/41 62/113/41
f 100/67/44 123/64/44 120/125/44
f 36/126/45 102/66/45 40/127/45
f 4/85/3 103/142/3 42/143/3
f 107/144/3 102/13/3 122/145/3
f 1/20/3 122/145/3 39/149/3
f 120/125/52 41/63/52 37/155/52
f 99/157/53 122/64/53 102/66/53
f 108/19/3 103/142/3 86/160/3
f 2/12/3 40/92/3 102/13/3
f 3/15/3 9/21/3 49/16/3
f 3/15/3 41/17/3 123/18/3
f 1/20/3 39/149/3 49/16/3
f 37/42/57 41/94/57 49/43/57
f 119/62/66 34/190/66 39/63/66
f 38/65/67 42/127/67 103/66/67
f 34/75/72 46/44/72 49/43/72
f 4/85/3 42/143/3 66/86/3
f 2/12/3 63/194/3 67/91/3
f 68/93/74 66/195/74 42/94/74
f 36/96/75 40/76/75 67/97/75
f 67/109/78 63/113/78 71/110/78
f 66/109/80 68/197/80 70/110/80
f 100/67/81 103/66/81 123/64/81
f 36/126/82 99/157/82 102/66/82
f 4/85/3 86/160/3 103/142/3
f 107/144/3 85/14/3 102/13/3
f 1/20/3 107/144/3 122/145/3
f 120/125/88 123/64/88 41/63/88
f 99/157/89 119/62/89 122/64/89
f 108/19/3 123/18/3 103/142/3
usemtl 3_window
f 142/162/2 131/163/2 141/164/2
f 133/180/2 148/181/2 131/163/2
f 142/162/2 133/180/2 131/163/2
f 133/180/2 149/198/2 148/181/2
usemtl 4_door
f 10/88/30 74/89/30 62/90/30
f 75/102/30 10/88/30 63/103/30
f 10/88/39 70/107/39 72/108/39
f 10/88/30 71/112/30 63/103/30
f 10/88/30 73/193/30 74/89/30
f 75/102/30 73/193/30 10/88/30
f 10/88/30 62/90/30 70/107/30
f 10/88/79 72/108/79 71/112/79
usemtl 5_courtyard
f 104/36/8 29/37/8 44/38/8
f 45/39/9 27/40/9 43/41/9
f 98/45/11 38/46/11 100/47/11
f 31/48/12 98/45/12 96/49/12
f 28/50/13 36/51/13 69/52/13
f 29/40/14 48/53/14 44/41/14
f 119/54/15 33/55/15 34/56/15
f 105/57/16 33/58/16 121/59/16
f 45/39/17 34/60/17 33/61/17
f 37/68/20 45/39/20 32/69/20
f 44/41/21 35/70/21 31/71/21
f 48/72/22 47/73/22 68/74/22
f 30/71/24 45/39/24 43/41/24
f 104/36/25 31/77/25 96/78/25
f 118/124/25 104/36/25 96/78/25
f 29/48/46 101/128/46 28/129/46
f 36/51/47 101/130/47 99/131/47
f 118/57/48 98/45/48 106/132/48
f 106/132/49 100/47/49 120/133/49
f 105/134/8 104/36/8 124/135/8
f 27/150/8 124/135/8 43/151/8
f 32/152/50 120/133/50 37/153/50
f 30/154/51 106/132/51 32/152/51
f 30/156/25 124/135/25 118/124/25
f 97/49/54 121/59/54 101/128/54
f 99/131/55 121/158/55 119/54/55
f 104/36/8 97/186/8 29/37/8
f 45/39/56 33/61/56 27/40/56
f 98/45/58 35/187/58 38/46/58
f 31/48/59 35/187/59 98/45/59
f 69/52/60 47/73/60 48/72/60
f 48/72/61 28/50/61 69/52/61
f 29/40/62 28/188/62 48/53/62
f 119/54/63 121/158/63 33/55/63
f 105/57/64 27/154/64 33/58/64
f 45/39/65 46/189/65 34/60/65
f 37/68/68 46/189/68 45/39/68
f 44/41/69 48/53/69 35/70/69
f 68/74/70 38/191/70 35/192/70
f 35/192/71 48/72/71 68/74/71
f 30/71/73 32/69/73 45/39/73
f 104/36/25 44/38/25 31/77/25
f 118/124/25 124/135/25 104/36/25
f 29/48/83 97/49/83 101/128/83
f 36/51/84 28/50/84 101/130/84
f 118/57/12 96/49/12 98/45/12
f 106/132/85 98/45/85 100/47/85
f 105/134/8 97/186/8 104/36/8
f 27/150/8 105/134/8 124/135/8
f 32/152/86 106/132/86 120/133/86
f 30/154/87 118/57/87 106/132/87
f 30/156/25 43/151/25 124/135/25
f 97/49/90 105/57/90 121/59/90
f 99/131/91 101/130/91 121/158/91
o 1_Mailbox
v 6.669598 0.041918 31.333397
v 6.669598 0.041918 30.693398
v 7.309598 0.041918 31.333397
v 7.309598 0.041918 30.693398
v 6.798387 4.041918 31.333397
v 6.798387 4.041918 30.693398
v 7.309598 4.041918 31.333397
v 7.309598 4.041918 30.693398
v 6.798387 4.041918 29.693398
v 7.309598 4.041918 29.693398
v 6.798387 4.041918 32.333397
v 7.309598 4.041918 32.333397
v 7.709599 4.041918 31.633398
v 7.709599 4.041918 30.693398
v 7.709599 4.041918 29.693398
v 7.709599 4.041918 32.333397
v 6.398387 4.041918 31.633398
v 6.398387 4.041918 30.693398
v 6.398387 4.041918 29.693398
v 6.398387 4.041918 32.333397
v 6.498387 5.041918 29.693398
v 7.609598 5.041918 29.693398
v 6.498387 5.041918 32.333397
v 7.609598 5.041918 32.333397
v 7.709599 5.041918 31.633398
v 7.709599 5.041918 30.693398
v 7.709599 5.041918 29.693398
v 7.709599 5.041918 32.333397
v 6.398387 5.041918 31.633398
v 6.398387 5.041918 30.693398
v 6.398387 5.041918 29.693398
v 6.398387 5.041918 32.333397
v 6.798387 5.541918 29.693398
v 7.309598 5.541918 29.693398
v 6.798387 5.541918 32.333397
v 7.309598 5.541918 32.333397
v 6.798387 5.541918 31.633398
v 7.309598 5.541918 31.633398
v 6.798387 5.541918 30.693398
v 7.309598 5.541918 30.693398
v 7.709599 4.541918 31.633398
v 7.709599 4.541918 30.693398
v 6.398387 4.541918 30.693398
v 6.398387 4.541918 31.633398
v 6.498387 4.709131 32.333397
v 7.609598 4.709131 32.333397
v 6.398387 4.541918 32.333397
v 7.609598 4.441918 29.693398
v 6.498387 4.441918 29.693398
v 7.709599 4.541918 29.693398
v 6.398387 4.541918 29.693398
v 7.709599 4.541918 32.333397
v 7.709599 4.791918 31.633398
v 6.398387 4.791918 30.693398
v 6.498387 4.791918 32.333397
v 6.398387 4.791918 32.333397
v 7.609598 4.791918 29.693398
v 6.398387 4.791918 29.693398
v 7.709599 4.791918 32.333397
v 7.709599 4.791918 30.693398
v 6.398387 4.791918 31.633398
v 7.609598 4.791918 32.433395
v 6.498387 4.791918 29.693398
v 7.709599 4.791918 29.693398
v 6.798387 4.041918 31.833397
v 7.309598 4.041918 31.833397
v 7.709599 4.041918 31.833397
v 6.398387 4.041918 31.833397
v 7.709599 5.041918 31.833397
v 6.398387 5.041918 31.833397
v 6.798387 5.541918 31.833397
v 7.309598 5.541918 31.833397
v 6.398387 4.541918 31.833397
v 7.709599 4.541918 31.833397
v 6.398387 4.791918 31.833397
v 7.709599 4.791918 31.833397
v 6.298387 5.041918 31.633398
v 6.298387 4.791918 31.633398
v 6.298387 5.041918 31.833397
v 6.298387 4.791918 31.833397
v 6.398387 5.641918 31.633398
v 6.398387 5.641918 31.833397
v 6.298387 5.641918 31.633398
v 6.298387 5.641918 31.833397
v 6.398387 6.041918 31.633398
v 6.398387 6.041918 31.833397
v 6.298387 6.041918 31.633398
v 6.298387 6.041918 31.833397
v 6.398387 5.641918 31.133398
v 6.298387 5.641918 31.133398
v 6.398387 6.041918 31.133398
v 6.298387 6.041918 31.133398
v 7.609598 4.791918 32.333397
v 6.498387 4.791918 32.433395
v 7.609598 4.791918 32.201691
v 7.609598 4.709131 32.201691
v 6.498387 4.709131 32.201691
v 6.498387 4.791918 32.201691
vn -0.0000 -1.0000 -0.0000
vn -0.0000 -0.0000 1.0000
vn -0.0000 -0.0000 -1.0000
vn 1.0000 -0.0000 -0.0000
vn -0.9995 0.0322 -0.0000
vn -1.0000 -0.0000 -0.0000
vn -0.0000 0.3714 0.9285
vn -0.6804 0.2722 0.6804
vn 0.7071 -0.0000 0.7071
vn -0.0000 1.0000 -0.0000
vn -0.7809 0.6247 -0.0000
vn 0.7809 0.6247 -0.0000
vt 0.125000 0.750000
vt 0.125000 0.500000
vt 0.375000 0.500000
vt 0.375000 0.750000
s 0
usemtl 6_flag
f 212/199/92 226/199/92 231/199/92
f 229/199/97 231/199/97 230/199/97
f 226/199/93 221/199/93 230/199/93
f 180/199/94 212/199/94 229/199/94
f 180/199/94 228/199/94 234/199/94
f 232/199/92 234/199/92 241/199/92
f 221/199/95 180/199/95 232/199/95
f 228/199/97 230/199/97 235/199/97
f 230/199/93 221/199/93 233/199/93
f 237/199/101 236/199/101 238/199/101
f 234/199/97 235/199/97 239/199/97
f 235/199/93 233/199/93 237/199/93
f 233/199/95 232/199/95 236/199/95
f 240/199/94 241/199/94 243/199/94
f 236/199/95 232/199/95 240/199/95
f 234/199/97 238/199/97 243/199/97
f 238/199/101 236/199/101 242/199/101
f 212/199/92 231/199/92 229/199/92
f 229/199/97 230/199/97 228/199/97
f 226/199/93 230/199/93 231/199/93
f 180/199/94 229/199/94 228/199/94
f 180/199/94 234/199/94 232/199/94
f 232/199/92 241/199/92 240/199/92
f 221/199/95 232/199/95 233/199/95
f 228/199/97 235/199/97 234/199/97
f 230/199/93 233/199/93 235/199/93
f 237/199/101 238/199/101 239/199/101
f 234/199/97 239/199/97 238/199/97
f 235/199/93 237/199/93 239/199/93
f 233/199/95 236/199/95 237/199/95
f 240/199/94 243/199/94 242/199/94
f 236/199/95 240/199/95 242/199/95
f 234/199/97 243/199/97 241/199/97
f 238/199/101 242/199/101 243/199/101
usemtl 7_mailbox
f 159/201/92 157/200/92 160/200/92
f 216/199/92 217/202/92 163/202/92
f 163/202/92 217/202/92 218/202/92
f 159/201/92 161/201/92 166/201/92
f 158/202/92 159/201/92 165/201/92
f 216/199/92 219/199/92 168/199/92
f 160/200/92 157/200/92 169/200/92
f 156/199/92 168/199/92 169/200/92
f 204/202/95 211/201/95 177/201/95
f 205/200/97 212/199/97 180/199/97
f 245/199/98 213/202/98 175/202/98
f 207/199/99 245/199/99 174/199/99
f 211/201/95 215/201/95 178/201/95
f 209/200/97 205/200/97 181/200/97
f 214/200/94 209/200/94 182/200/94
f 210/202/95 227/202/95 220/202/95
f 215/201/94 208/201/94 173/201/94
f 213/202/100 210/202/100 179/202/100
f 174/199/93 175/202/93 187/202/93
f 173/201/94 172/200/94 184/200/94
f 173/201/94 185/201/94 178/201/94
f 175/202/93 179/202/93 187/202/93
f 172/200/94 182/200/94 184/200/94
f 174/199/93 186/199/93 183/199/93
f 222/199/101 223/202/101 189/202/101
f 185/201/101 184/200/101 190/200/101
f 190/200/101 188/199/101 189/202/101
f 222/199/102 221/199/102 183/199/102
f 190/200/102 181/200/102 180/199/102
f 184/200/102 182/200/102 181/200/102
f 220/202/103 176/202/103 189/202/103
f 176/202/103 177/201/103 191/201/103
f 191/201/103 177/201/103 178/201/103
f 163/202/93 167/202/93 203/202/93
f 166/201/94 161/201/94 199/201/94
f 168/199/97 219/199/97 224/199/97
f 167/202/95 218/202/95 225/202/95
f 170/200/94 202/200/94 200/200/94
f 170/200/97 169/200/97 194/200/97
f 165/201/95 166/201/95 201/201/95
f 161/201/94 160/200/94 200/200/94
f 162/199/93 196/199/93 198/199/93
f 162/199/93 163/202/93 197/202/93
f 169/200/97 168/199/97 195/199/97
f 164/202/95 165/201/95 193/201/95
f 197/202/93 203/202/93 210/202/93
f 201/201/94 199/201/94 208/201/94
f 195/199/97 224/199/97 226/199/97
f 203/202/95 225/202/95 227/202/95
f 202/200/94 209/200/94 214/200/94
f 202/200/97 194/200/97 205/200/97
f 193/201/95 201/201/95 215/201/95
f 196/199/93 206/199/93 207/199/93
f 206/199/92 246/202/92 244/202/92
f 194/200/97 195/199/97 212/199/97
f 192/202/95 193/201/95 211/201/95
f 225/202/95 192/202/95 204/202/95
f 224/199/97 198/199/97 207/199/97
f 218/202/95 164/202/95 192/202/95
f 219/199/97 171/199/97 198/199/97
f 187/202/103 179/202/103 220/202/103
f 188/199/102 180/199/102 221/199/102
f 186/199/101 187/202/101 223/202/101
f 226/199/97 207/199/97 183/199/97
f 227/202/95 204/202/95 176/202/95
f 216/199/92 162/199/92 171/199/92
f 217/202/92 158/202/92 164/202/92
f 156/199/92 158/202/92 217/202/92
f 159/201/92 160/200/92 161/201/92
f 216/199/92 163/202/92 162/199/92
f 163/202/92 218/202/92 167/202/92
f 159/201/92 166/201/92 165/201/92
f 158/202/92 165/201/92 164/202/92
f 216/199/92 168/199/92 156/199/92
f 160/200/92 169/200/92 170/200/92
f 156/199/92 169/200/92 157/200/92
f 204/202/95 177/201/95 176/202/95
f 205/200/97 180/199/97 181/200/97
f 245/199/98 175/202/98 174/199/98
f 207/199/93 174/199/93 183/199/93
f 211/201/95 178/201/95 177/201/95
f 209/200/97 181/200/97 182/200/97
f 214/200/94 182/200/94 172/200/94
f 210/202/95 220/202/95 179/202/95
f 215/201/94 173/201/94 178/201/94
f 213/202/98 179/202/98 175/202/98
f 174/199/93 187/202/93 186/199/93
f 173/201/94 184/200/94 185/201/94
f 222/199/101 189/202/101 188/199/101
f 185/201/101 190/200/101 191/201/101
f 190/200/101 189/202/101 191/201/101
f 222/199/102 183/199/102 186/199/102
f 190/200/102 180/199/102 188/199/102
f 184/200/102 181/200/102 190/200/102
f 220/202/103 189/202/103 223/202/103
f 176/202/103 191/201/103 189/202/103
f 191/201/103 178/201/103 185/201/103
f 163/202/93 203/202/93 197/202/93
f 166/201/94 199/201/94 201/201/94
f 168/199/97 224/199/97 195/199/97
f 167/202/95 225/202/95 203/202/95
f 170/200/94 200/200/94 160/200/94
f 170/200/97 194/200/97 202/200/97
f 165/201/95 201/201/95 193/201/95
f 161/201/94 200/200/94 199/201/94
f 162/199/93 198/199/93 171/199/93
f 162/199/93 197/202/93 196/199/93
f 169/200/97 195/199/97 194/200/97
f 164/202/95 193/201/95 192/202/95
f 197/202/93 210/202/93 244/202/93
f 201/201/94 208/201/94 215/201/94
f 195/199/97 226/199/97 212/199/97
f 203/202/95 227/202/95 210/202/95
f 202/200/94 214/200/94 200/200/94
f 202/200/97 205/200/97 209/200/97
f 193/201/95 215/201/95 211/201/95
f 196/199/93 207/199/93 198/199/93
f 197/202/101 248/199/101 196/199/101
f 194/200/97 212/199/97 205/200/97
f 192/202/95 211/201/95 204/202/95
f 225/202/95 204/202/95 227/202/95
f 224/199/97 207/199/97 226/199/97
f 218/202/95 192/202/95 225/202/95
f 219/199/97 198/199/97 224/199/97
f 187/202/103 220/202/103 223/202/103
f 188/199/102 221/199/102 222/199/102
f 186/199/101 223/202/101 222/199/101
f 226/199/97 183/199/97 221/199/97
f 227/202/95 176/202/95 220/202/95
f 216/199/92 171/199/92 219/199/92
f 217/202/92 164/202/92 218/202/92
f 156/199/92 217/202/92 216/199/92
f 210/202/92 213/202/92 244/202/92
f 245/199/92 207/199/92 206/199/92
f 244/202/92 213/202/92 206/199/92
f 213/202/92 245/199/92 206/199/92
f 196/199/95 249/199/95 206/199/95
f 244/202/97 247/202/97 197/202/97
f 206/199/92 249/199/92 246/202/92
f 197/202/101 247/202/101 248/199/101
f 196/199/95 248/199/95 249/199/95
f 244/202/97 246/202/97 247/202/97
usemtl 8_mailslot
f 208/201/94 214/200/94 172/200/94
f 199/201/94 200/200/94 214/200/94
f 208/201/94 172/200/94 173/201/94
f 199/201/94 214/200/94 208/201/94
f 248/199/93 247/202/93 246/202/93
f 248/199/93 246/202/93 249/199/93
usemtl 9_post
f 152/199/92 153/200/92 155/201/92
f 154/202/93 158/202/93 156/199/93
f 155/201/94 153/200/94 157/200/94
f 154/202/95 155/201/95 159/201/95
f 153/200/96 152/199/96 156/199/96
f 152/199/92 155/201/92 154/202/92
f 154/202/93 156/199/93 152/199/93
f 155/201/94 157/200/94 159/201/94
f 154/202/95 159/201/95 158/202/95
f 153/200/96 156/199/96 157/200/96
