# Blender 3.5.0
# www.blender.org
mtllib thing.mtl
o Cube
v 1.000000 1.000000 -1.000000
v 1.000000 -1.000000 -1.000000
v 1.000000 1.000000 1.000000
v 1.000000 -1.000000 1.000000
v -1.000000 1.000000 -1.000000
v -1.000000 -1.000000 -1.000000
v -1.000000 1.000000 1.000000
v -1.000000 -1.000000 1.000000
vn -0.0000 1.0000 -0.0000
vn -0.0000 -0.0000 1.0000
vn -1.0000 -0.0000 -0.0000
vn -0.0000 -1.0000 -0.0000
vn 1.0000 -0.0000 -0.0000
vn -0.0000 -0.0000 -1.0000
vt 0.000053 0.000053
vt 0.000053 0.999947
vt 0.000053 0.999947
vt 0.281273 0.000053
vt 0.000053 0.000053
vt 0.972092 0.999901
vt 0.000099 0.000099
vt 0.281273 0.000053
vt 0.000099 0.999901
vt 0.281273 0.999947
vt 0.000099 0.000099
vt 0.000099 0.999901
vt 0.281273 0.999947
vt 0.281273 0.000053
vt 0.000099 0.000099
vt 0.972092 0.000099
vt 0.972092 0.999901
vt 0.972092 0.000099
vt 0.972092 0.999901
vt 0.000053 0.999947
s 0
usemtl Material
f 2/4/4 8/20/4 6/15/4
f 1/1/5 4/10/5 2/3/5
f 5/13/6 2/5/6 6/14/6
f 2/4/4 4/10/4 8/20/4
f 1/1/5 3/8/5 4/10/5
f 5/13/6 1/2/6 2/5/6
usemtl Material.001
f 5/11/1 3/6/1 1/2/1
f 3/7/2 8/19/2 4/9/2
f 7/17/3 6/15/3 8/18/3
f 5/11/1 7/16/1 3/6/1
f 3/7/2 7/16/2 8/19/2
f 7/17/3 5/12/3 6/15/3
